<svg width="237" height="64" viewBox="0 0 237 64" fill="none" xmlns="http://www.w3.org/2000/svg">
<path d="M0 2C0 0.895431 0.895431 0 2 0H57C58.1046 0 59 0.895431 59 2V62C59 63.1046 58.1046 64 57 64H2C0.89543 64 0 63.1046 0 62V2Z" fill="#07484A"/>
<path fill-rule="evenodd" clip-rule="evenodd" d="M27.6841 2.13727C28.2364 2.13727 28.6841 2.58498 28.6841 3.13727V28.6372H53.1841C53.7364 28.6372 54.1841 29.085 54.1841 29.6372V59.1372C54.1841 59.6895 53.7364 60.1372 53.1841 60.1372C52.6318 60.1372 52.1841 59.6895 52.1841 59.1372V41.1372H28.6841V59.1372C28.6841 59.6895 28.2364 60.1372 27.6841 60.1372C27.1318 60.1372 26.6841 59.6895 26.6841 59.1372V3.13727C26.6841 2.58498 27.1318 2.13727 27.6841 2.13727ZM28.6841 39.1372H52.1841V30.6372H28.6841V39.1372Z" fill="#F0FFFF"/>
<path fill-rule="evenodd" clip-rule="evenodd" d="M18.8858 2.38734C19.2839 2.66516 19.6509 3.07048 19.9978 3.55604C21.1227 5.13095 21.7636 7.14673 22.0943 9.30119C22.4264 11.4643 22.4557 13.8345 22.307 16.1757C22.0504 20.2151 21.2581 24.2502 20.4994 27.1373H21.6841C22.2363 27.1373 22.6841 27.585 22.6841 28.1373C22.6841 28.6896 22.2363 29.1373 21.6841 29.1373H11.6948C12.0493 29.6852 12.3777 30.2828 12.6143 30.883C12.872 31.5366 13.0581 32.2853 12.9745 33.018C12.8844 33.806 12.4841 34.5235 11.6986 34.9948L11.6272 35.0376L11.5497 35.068C8.96945 36.0817 7.49211 37.6116 6.7196 39.3851C5.9335 41.1897 5.83104 43.3549 6.22038 45.685C6.96866 50.1632 9.48199 54.9424 11.702 58.1373H20.6841V34.6373H52.6841V36.6373H22.6841V60.1373H10.671L10.3717 59.7205C7.99236 56.4064 5.0995 51.1122 4.24773 46.0146C3.8204 43.4571 3.89295 40.8661 4.88601 38.5864C5.88243 36.2989 7.75999 34.4312 10.7266 33.2429C10.8984 33.1231 10.9651 32.9858 10.9874 32.791C11.0183 32.5205 10.9544 32.1255 10.7537 31.6166C10.3549 30.6049 9.56199 29.5052 8.93663 28.8016L7.45719 27.1373H12.6871C11.0865 24.3444 9.1691 20.6427 7.79803 17.1804C6.98154 15.1186 6.33845 13.0917 6.08745 11.3689C5.9619 10.5072 5.92767 9.67815 6.04167 8.93747C6.15585 8.19563 6.4298 7.47728 6.97694 6.93014C7.63417 6.27292 8.45311 6.00906 9.31709 6.17339C10.1066 6.32356 10.8244 6.80984 11.4448 7.39787C12.5093 8.40689 13.5471 9.96663 14.4666 11.7551C14.4669 11.7462 14.4671 11.7373 14.4674 11.7284C14.5529 8.65279 14.8557 5.7197 15.5169 3.97279C15.6859 3.52619 15.8992 3.09864 16.1799 2.75492C16.4631 2.40804 16.8709 2.08195 17.4208 1.99747C17.977 1.91201 18.4798 2.10398 18.8858 2.38734ZM14.5129 16.9844C14.1023 15.7945 13.6317 14.6326 13.1249 13.5575C12.1362 11.4597 11.0509 9.78023 10.0689 8.84939C9.57369 8.37998 9.19263 8.18557 8.94338 8.13817C8.7686 8.10492 8.60892 8.12659 8.39114 8.34436C8.23828 8.49722 8.09139 8.7674 8.01839 9.24171C7.94522 9.71717 7.95747 10.3319 8.06655 11.0806C8.28482 12.5787 8.8636 14.4392 9.65753 16.4441C11.1526 20.2195 13.3387 24.3295 15.0015 27.1373H16.2292L16.2191 27.1247C15.9851 26.8322 15.82 26.4497 15.6946 26.086C15.562 25.7016 15.4433 25.2454 15.3363 24.742C15.1222 23.7338 14.9413 22.4679 14.7994 21.0675C14.6714 19.8034 14.5737 18.4145 14.5129 16.9844ZM17.9191 27.1373L17.9899 26.6414C18.2652 24.7143 17.9975 22.3025 17.4322 19.8801C17.1796 18.7974 16.8636 17.6962 16.4995 16.6137C16.4372 15.0085 16.4229 13.3563 16.4666 11.7839C16.5522 8.7063 16.8578 6.07997 17.3874 4.68075C17.5161 4.34081 17.6369 4.13266 17.729 4.01994C17.7288 4.02014 17.7291 4.01974 17.729 4.01994C17.7328 4.02251 17.7372 4.02461 17.7413 4.02745C17.8796 4.12396 18.0921 4.32909 18.3703 4.71852C19.2454 5.94362 19.8128 7.6195 20.1175 9.60463C20.4209 11.5811 20.454 13.7984 20.3111 16.0489C20.0485 20.1829 19.1981 24.3356 18.4286 27.1373H17.9191Z" fill="white"/>
<path d="M211.109 17.5C211.679 17.41 212.309 17.35 212.999 17.32C213.719 17.26 214.454 17.23 215.204 17.23C215.984 17.2 216.734 17.185 217.454 17.185C218.204 17.155 218.894 17.14 219.524 17.14C222.044 17.14 224.219 17.53 226.049 18.31C227.909 19.09 229.439 20.185 230.639 21.595C231.839 22.975 232.724 24.64 233.294 26.59C233.894 28.54 234.194 30.685 234.194 33.025C234.194 35.155 233.909 37.21 233.339 39.19C232.799 41.14 231.929 42.88 230.729 44.41C229.529 45.91 227.969 47.125 226.049 48.055C224.129 48.955 221.804 49.405 219.074 49.405C218.594 49.405 217.964 49.39 217.184 49.36C216.434 49.36 215.654 49.33 214.844 49.27C214.034 49.24 213.284 49.21 212.594 49.18C211.904 49.15 211.409 49.105 211.109 49.045V17.5ZM219.614 20.47C219.224 20.47 218.789 20.47 218.309 20.47C217.859 20.47 217.409 20.485 216.959 20.515C216.509 20.545 216.089 20.575 215.699 20.605C215.339 20.635 215.054 20.665 214.844 20.695V45.895C214.994 45.925 215.279 45.955 215.699 45.985C216.119 45.985 216.554 46 217.004 46.03C217.454 46.03 217.889 46.045 218.309 46.075C218.729 46.075 219.014 46.075 219.164 46.075C221.264 46.075 223.019 45.715 224.429 44.995C225.869 44.275 227.009 43.315 227.849 42.115C228.719 40.885 229.334 39.49 229.694 37.93C230.054 36.34 230.234 34.705 230.234 33.025C230.234 31.555 230.069 30.085 229.739 28.615C229.409 27.115 228.839 25.765 228.029 24.565C227.219 23.365 226.124 22.39 224.744 21.64C223.394 20.86 221.684 20.47 219.614 20.47Z" fill="#07484A"/>
<path d="M179.042 33.25C179.042 28 180.152 23.98 182.372 21.19C184.592 18.37 187.757 16.96 191.867 16.96C194.087 16.96 196.007 17.35 197.627 18.13C199.247 18.91 200.582 20.02 201.632 21.46C202.712 22.87 203.507 24.58 204.017 26.59C204.527 28.57 204.782 30.79 204.782 33.25C204.782 38.5 203.657 42.535 201.407 45.355C199.187 48.145 196.007 49.54 191.867 49.54C189.677 49.54 187.772 49.15 186.152 48.37C184.562 47.59 183.227 46.495 182.147 45.085C181.097 43.645 180.317 41.935 179.807 39.955C179.297 37.945 179.042 35.71 179.042 33.25ZM183.002 33.25C183.002 34.99 183.167 36.64 183.497 38.2C183.857 39.76 184.397 41.14 185.117 42.34C185.837 43.51 186.752 44.455 187.862 45.175C189.002 45.865 190.337 46.21 191.867 46.21C194.657 46.21 196.847 45.16 198.437 43.06C200.027 40.93 200.822 37.66 200.822 33.25C200.822 31.54 200.642 29.905 200.282 28.345C199.952 26.755 199.412 25.375 198.662 24.205C197.942 23.005 197.012 22.06 195.872 21.37C194.762 20.65 193.427 20.29 191.867 20.29C189.107 20.29 186.932 21.355 185.342 23.485C183.782 25.585 183.002 28.84 183.002 33.25Z" fill="#07484A"/>
<path d="M148.281 33.25C148.281 28 149.391 23.98 151.611 21.19C153.831 18.37 156.996 16.96 161.106 16.96C163.326 16.96 165.246 17.35 166.866 18.13C168.486 18.91 169.821 20.02 170.871 21.46C171.951 22.87 172.746 24.58 173.256 26.59C173.766 28.57 174.021 30.79 174.021 33.25C174.021 38.5 172.896 42.535 170.646 45.355C168.426 48.145 165.246 49.54 161.106 49.54C158.916 49.54 157.011 49.15 155.391 48.37C153.801 47.59 152.466 46.495 151.386 45.085C150.336 43.645 149.556 41.935 149.046 39.955C148.536 37.945 148.281 35.71 148.281 33.25ZM152.241 33.25C152.241 34.99 152.406 36.64 152.736 38.2C153.096 39.76 153.636 41.14 154.356 42.34C155.076 43.51 155.991 44.455 157.101 45.175C158.241 45.865 159.576 46.21 161.106 46.21C163.896 46.21 166.086 45.16 167.676 43.06C169.266 40.93 170.061 37.66 170.061 33.25C170.061 31.54 169.881 29.905 169.521 28.345C169.191 26.755 168.651 25.375 167.901 24.205C167.181 23.005 166.251 22.06 165.111 21.37C164.001 20.65 162.666 20.29 161.106 20.29C158.346 20.29 156.171 21.355 154.581 23.485C153.021 25.585 152.241 28.84 152.241 33.25Z" fill="#07484A"/>
<path d="M119.364 38.605L120.084 43.825H120.129L120.894 38.515L127.374 17.5H129.174L135.699 38.605L136.464 43.825H136.509L137.319 38.515L142.629 17.5H146.274L137.499 49.495H135.429L129.039 28.39L128.229 23.62H128.004L127.194 28.435L120.804 49.495H118.734L109.734 17.5H113.694L119.364 38.605Z" fill="#07484A"/>
<path d="M88.5907 28.39L86.1607 23.845H85.9807L86.4307 28.39V49H82.9207V17.005H84.9007L99.9757 38.02L102.316 42.34H102.541L102.046 38.02V17.5H105.556V49.495H103.576L88.5907 28.39Z" fill="#07484A"/>
<path d="M70.6799 17.5H74.4149V49H70.6799V17.5Z" fill="#07484A"/>
</svg>
